<?xml version="1.0" encoding="UTF-8"?>
<svg width="24px" height="24px" viewBox="0 0 24 24" version="1.1" xmlns="http://www.w3.org/2000/svg" xmlns:xlink="http://www.w3.org/1999/xlink">
    <title>Ico / add</title>
    <g id="Symbols" stroke="none" stroke-width="1" fill="none" fill-rule="evenodd">
        <g id="Ico-/-add" fill="#404B5A">
            <path d="M12,7.25 C12.3796958,7.25 12.693491,7.53215388 12.7431534,7.89822944 L12.75,8 L12.75,16 C12.75,16.4142136 12.4142136,16.75 12,16.75 C11.6203042,16.75 11.306509,16.4678461 11.2568466,16.1017706 L11.25,16 L11.25,8 C11.25,7.58578644 11.5857864,7.25 12,7.25 Z" id="Stroke-1"></path>
            <path d="M16,11.25 C16.4142136,11.25 16.75,11.5857864 16.75,12 C16.75,12.3796958 16.4678461,12.693491 16.1017706,12.7431534 L16,12.75 L8,12.75 C7.58578644,12.75 7.25,12.4142136 7.25,12 C7.25,11.6203042 7.53215388,11.306509 7.89822944,11.2568466 L8,11.25 L16,11.25 Z" id="Stroke-2"></path>
            <path d="M12,2.25 C6.61478644,2.25 2.25,6.61478644 2.25,12 C2.25,17.3845461 6.61511891,21.75 12,21.75 L12.2762292,21.746084 C17.5504227,21.5934372 21.75,17.2775066 21.75,12 C21.75,6.61478644 17.3852136,2.25 12,2.25 Z M12,3.75 C16.5567864,3.75 20.25,7.44321356 20.25,12 C20.25,16.465447 16.6963644,20.1175395 12.2436761,20.2464766 L11.9891557,20.2500784 C7.44357181,20.2500784 3.75,16.5561447 3.75,12 C3.75,7.44321356 7.44321356,3.75 12,3.75 Z" id="Stroke-3"></path>
        </g>
    </g>
</svg>